
<svg version="1.0" xmlns="http://www.w3.org/2000/svg"
 width="1280.000000pt" height="640.000000pt" viewBox="0 0 1280.000000 640.000000"
 preserveAspectRatio="xMidYMid meet">
<g transform="translate(0.000000,640.000000) scale(0.100000,-0.100000)"
fill="#000000" stroke="none">
<path d="M306 5669 c-22 -5 -65 -21 -97 -35 l-57 -26 -6 -82 c-3 -44 -8 -256
-11 -471 -3 -214 -10 -631 -15 -925 -16 -851 -29 -1617 -40 -2280 -6 -338 -12
-690 -14 -782 l-4 -168 37 -10 c20 -5 74 -15 121 -22 68 -10 89 -17 103 -35
22 -28 74 -30 162 -8 66 17 98 40 91 64 -2 9 -7 37 -11 62 l-6 46 163 -3 c90
-2 348 -9 573 -15 234 -6 538 -8 708 -4 l297 8 0 39 c0 22 7 63 14 91 8 29 20
72 27 97 l12 45 18 -50 c10 -31 18 -80 18 -127 l1 -78 463 -1 c672 -1 1080
-13 1142 -33 66 -21 142 -20 315 4 97 13 198 20 310 20 92 0 201 3 242 6 l76
7 6 56 c4 31 12 66 19 78 11 19 12 15 12 -31 0 -41 6 -61 28 -93 l27 -39 210
-13 c121 -8 253 -10 310 -6 l100 7 -6 39 c-5 28 -1 52 15 88 11 27 21 66 21
87 0 60 9 34 19 -56 8 -76 12 -87 40 -112 39 -35 82 -46 221 -59 129 -11 289
-4 336 16 26 11 33 21 39 54 4 23 12 41 19 41 7 0 27 -16 46 -35 61 -63 66
-64 361 -58 l265 6 21 32 c12 17 29 55 39 83 10 29 22 52 26 52 9 0 53 -59 61
-83 5 -13 0 -20 -19 -27 -25 -10 -25 -10 -8 -40 10 -16 32 -36 50 -45 39 -18
161 -20 319 -3 l113 11 12 41 c12 41 36 76 52 76 4 0 24 -23 44 -50 66 -92 2
-85 823 -84 398 1 879 5 1068 9 l344 7 -5 42 c-3 22 -8 75 -11 116 l-6 75 43
-41 c51 -49 81 -58 121 -38 24 13 28 20 24 43 -7 35 23 87 59 103 22 10 28 10
40 -6 23 -32 37 -126 27 -172 -13 -55 3 -94 48 -121 31 -19 60 -21 304 -29
286 -10 1207 -12 1512 -4 156 3 184 2 200 -12 10 -8 28 -21 40 -27 27 -14 176
-14 240 -1 l48 11 -2 162 c-1 89 -7 569 -13 1067 -6 498 -15 1216 -20 1595 -5
380 -12 946 -16 1258 l-6 568 -32 16 c-17 9 -49 22 -71 28 -35 11 -41 17 -45
46 l-5 34 -65 3 c-63 3 -132 -6 -232 -30 -45 -11 -48 -14 -48 -45 l0 -33 -474
2 c-261 2 -477 1 -479 -2 -3 -3 -1 -58 4 -122 6 -68 7 -135 2 -160 -8 -39 -12
-43 -38 -44 -51 -1 -54 -3 -76 -45 -29 -57 -49 -127 -49 -171 0 -21 -3 -38 -6
-38 -3 0 -25 14 -49 30 -35 24 -53 48 -81 105 -41 87 -78 135 -103 135 -23 0
-51 -32 -94 -105 -50 -85 -80 -111 -114 -99 -14 5 -35 22 -47 37 -23 31 -25
90 -12 277 4 56 2 104 -7 140 l-13 55 -419 0 c-231 0 -765 4 -1188 9 -580 7
-807 6 -930 -3 -214 -16 -213 -15 -209 -71 1 -25 7 -59 13 -77 15 -47 13 -106
-4 -139 l-16 -29 6 38 c3 22 -1 59 -10 90 -9 28 -19 78 -22 110 -4 31 -7 57
-8 58 -1 0 -56 4 -122 9 -66 5 -154 14 -195 20 -76 12 -210 8 -325 -10 -33 -5
-119 -14 -192 -20 -114 -9 -148 -8 -240 7 -144 24 -462 23 -723 -1 -133 -12
-268 -17 -425 -16 -126 1 -288 2 -360 3 -73 1 -152 -4 -180 -11 -47 -12 -52
-16 -84 -77 -33 -61 -34 -69 -32 -155 1 -57 -2 -89 -8 -86 -5 4 -7 21 -4 39 8
50 -12 107 -57 161 -22 26 -40 58 -40 71 0 31 -26 51 -84 66 -56 14 -704 5
-811 -12 -190 -29 -573 -38 -1268 -31 l-319 4 -56 -40 c-52 -36 -58 -44 -65
-88 -8 -48 -67 -134 -67 -98 0 10 -12 38 -26 62 -22 37 -27 57 -26 107 l1 62
-212 8 c-117 4 -436 7 -709 7 l-497 -1 -3 52 c-3 49 -5 53 -44 74 -48 27 -140
37 -198 22z m9804 -4544 c-13 -14 -27 -25 -31 -25 -3 0 5 13 20 29 14 16 28
27 30 25 3 -2 -6 -15 -19 -29z"/>
<path d="M9990 1115 c7 -8 17 -15 22 -15 6 0 5 7 -2 15 -7 8 -17 15 -22 15 -6
0 -5 -7 2 -15z"/>
<path d="M2268 963 c7 -3 16 -2 19 1 4 3 -2 6 -13 5 -11 0 -14 -3 -6 -6z"/>
</g>
</svg>
