<svg version="1.0"
    xmlns="http://www.w3.org/2000/svg" width="1280.000000pt" height="903.000000pt" viewBox="0 0 1280.000000 903.000000" preserveAspectRatio="xMidYMid meet">
    <g transform="translate(0.000000,903.000000) scale(0.100000,-0.100000)" fill="#673ab7" stroke="none">
        <path d="M8493 6067 c-4 -7 -28 -19 -53 -27 -25 -7 -50 -17 -56 -22 -24 -17
-233 -24 -405 -12 l-97 6 -40 -53 c-56 -76 -60 -87 -56 -148 2 -37 0 -58 -9
-63 -17 -11 -145 -10 -152 2 -7 11 -9 140 -2 147 3 2 30 8 60 12 71 10 89 24
85 70 -3 41 22 38 -216 28 -78 -3 -146 -8 -151 -11 -15 -9 -11 -84 5 -97 11
-9 14 -31 13 -85 l-2 -72 -42 -6 c-23 -4 -60 -4 -83 0 -37 6 -41 9 -44 38 -2
17 -1 50 0 73 l4 42 61 -2 62 -2 3 49 c2 37 0 47 -10 44 -7 -3 -40 -1 -73 4
-58 9 -178 10 -281 3 -27 -2 -119 -3 -204 -3 -845 1 -850 1 -850 -22 0 -10 -7
-45 -15 -77 -18 -70 -20 -159 -2 -170 15 -10 -98 -20 -133 -12 -24 5 -25 10
-28 81 -3 72 -1 77 20 84 13 4 34 7 48 6 24 -2 30 7 67 98 1 3 -4 14 -12 24
-14 19 -16 19 -34 2 -16 -15 -46 -18 -203 -22 -100 -3 -221 -7 -268 -9 -47 -2
-109 -4 -137 -4 -48 -1 -53 -3 -53 -24 0 -13 -5 -28 -11 -34 -7 -7 -8 -19 -3
-30 4 -10 8 -55 8 -100 l1 -83 -50 -1 c-52 -2 -98 0 -103 5 -3 3 -5 120 -3
143 0 6 16 15 33 19 36 7 48 20 79 78 25 47 13 68 -25 43 -19 -13 -62 -18
-198 -23 -95 -3 -182 -8 -193 -9 -11 -2 -77 -4 -147 -4 -116 -1 -128 -3 -128
-19 0 -10 -7 -28 -16 -41 -13 -18 -14 -25 -4 -31 6 -4 11 -10 11 -14 -3 -23 0
-36 8 -31 6 3 11 -45 13 -122 4 -178 1 -204 -27 -238 -14 -15 -25 -35 -25 -44
1 -13 3 -13 15 3 19 26 19 21 -4 -42 -15 -39 -20 -78 -19 -147 0 -51 -3 -98
-7 -105 -9 -14 -12 -42 -23 -178 -10 -128 -1 -212 27 -248 11 -15 21 -40 21
-56 0 -16 7 -43 16 -59 8 -17 17 -42 19 -57 2 -15 9 -49 15 -77 7 -29 11 -109
10 -190 -1 -77 -3 -209 -4 -292 0 -84 -3 -153 -6 -153 -3 0 -4 -126 -3 -280 1
-154 -1 -280 -5 -280 -10 0 -13 -36 -16 -235 -2 -99 -5 -184 -7 -190 -2 -5 3
-25 10 -43 9 -21 11 -36 4 -40 -5 -4 -10 -27 -11 -52 -2 -25 -7 -71 -13 -102
-11 -67 -5 -208 10 -217 13 -8 7 -64 -7 -69 -8 -2 -9 -9 -2 -21 5 -10 7 -20 5
-22 -2 -3 -7 -27 -10 -54 -4 -28 -12 -56 -17 -62 -7 -9 -6 -13 3 -13 12 0 12
-2 0 -9 -8 -5 -10 -14 -5 -22 4 -8 7 -28 5 -45 -1 -17 5 -48 13 -69 16 -36 16
-37 58 -30 24 4 66 8 95 10 28 1 64 5 78 9 16 4 33 2 41 -5 7 -6 53 -13 101
-16 81 -4 143 -22 143 -42 0 -5 16 -19 34 -31 19 -11 38 -29 41 -39 4 -14 14
-18 43 -16 46 4 75 10 100 24 11 6 21 8 24 6 3 -3 33 -7 68 -10 46 -4 69 -2
86 10 13 8 32 15 43 15 11 0 21 5 23 12 5 15 98 15 107 -1 5 -7 31 -12 62 -13
30 0 86 -7 124 -15 39 -8 77 -15 85 -17 8 -1 22 -6 31 -10 8 -3 46 -8 85 -10
38 -2 100 -11 137 -20 37 -9 72 -14 77 -11 4 3 21 0 37 -6 15 -6 67 -11 115
-11 63 1 90 -3 99 -14 6 -8 20 -14 30 -14 10 0 21 -5 24 -10 4 -6 10 -8 15 -5
5 3 20 0 32 -6 13 -7 55 -13 93 -14 78 -1 93 -4 114 -24 12 -11 16 -11 26 2 6
9 20 16 31 16 10 0 43 2 72 4 29 2 55 0 58 -5 3 -4 10 -6 15 -2 5 3 24 0 43
-6 22 -7 42 -7 59 -1 19 8 28 6 38 -5 7 -9 24 -13 45 -10 21 2 38 -2 45 -10
11 -13 83 -31 103 -26 4 2 14 -2 22 -8 7 -7 35 -12 61 -12 26 0 63 -7 83 -16
41 -18 89 -25 110 -16 8 4 20 6 25 4 10 -3 50 -7 130 -14 22 -2 47 -6 55 -10
8 -3 48 -7 89 -9 64 -2 75 0 79 15 2 10 9 15 14 12 6 -4 34 -8 62 -10 106 -7
145 -12 155 -18 6 -4 20 -4 31 -1 11 4 35 2 53 -4 18 -6 55 -13 82 -16 64 -5
111 -20 130 -39 10 -9 32 -15 59 -14 24 0 59 -5 79 -11 20 -7 41 -10 46 -6 6
3 30 -3 55 -15 49 -22 86 -16 105 17 9 16 10 16 11 2 0 -33 80 -27 124 10 9 7
29 11 46 9 16 -3 30 -1 30 3 0 13 95 15 132 3 31 -11 46 -11 85 1 25 8 50 12
54 9 4 -2 33 5 65 17 40 15 70 20 103 16 34 -3 54 0 76 14 47 29 77 41 115 43
45 4 70 15 70 31 0 16 58 25 73 11 10 -9 43 -11 127 -5 8 0 25 -2 38 -5 22 -5
23 -3 16 27 -3 18 -19 57 -35 88 -16 30 -29 66 -28 80 1 25 -6 83 -17 132 -3
15 -16 47 -30 70 -13 25 -25 66 -28 98 -2 31 -13 71 -24 90 -24 44 -33 77 -21
85 5 3 5 13 -1 24 -5 10 -10 31 -10 45 0 15 -6 33 -14 40 -9 9 -12 27 -8 52
10 71 -7 196 -34 247 -35 66 -45 189 -30 364 5 64 4 97 -3 106 -6 7 -14 58
-18 112 -3 55 -10 105 -15 111 -6 7 -7 29 -4 49 5 24 3 43 -8 58 -17 27 -15
98 3 120 10 12 10 27 2 68 -9 40 -9 72 0 123 6 39 13 93 15 120 6 94 16 165
25 165 5 0 9 27 9 60 0 44 -7 74 -25 112 -14 28 -25 68 -25 87 0 20 -7 44 -15
55 -10 13 -11 25 -4 44 5 14 7 38 4 52 -3 16 1 45 11 69 13 32 14 48 6 64 -25
51 -37 116 -47 246 -3 41 -8 78 -11 83 -3 5 0 16 7 24 9 11 10 17 1 22 -26 17
-33 64 -17 113 18 54 18 46 15 193 -2 77 -7 121 -20 150 -12 30 -16 63 -14
121 3 109 -5 164 -28 187 -15 15 -19 34 -19 89 0 39 1 73 4 75 2 2 31 6 66 9
34 2 66 7 71 10 6 3 10 27 10 51 l0 46 -227 -6 c-126 -3 -253 -8 -283 -11 -30
-2 -164 -6 -298 -9 -134 -2 -244 -5 -245 -7 -1 -2 -10 -18 -19 -36 -14 -23
-18 -54 -18 -126 l0 -94 -58 -7 c-33 -4 -71 -2 -85 3 -26 10 -27 14 -27 80 l0
69 44 21 c27 14 48 32 55 49 7 15 23 41 36 56 23 27 32 46 20 46 -2 0 -8 -6
-12 -13z m385 -152 c4 -3 7 -38 7 -76 l1 -70 -80 3 -81 3 0 70 0 70 45 5 c55
6 99 4 108 -5z m373 3 c13 -20 11 -126 -2 -134 -7 -4 -45 -7 -85 -8 l-74 -1 0
76 0 76 77 2 c54 2 79 -2 84 -11z m-2201 -37 c0 -4 -4 -11 -10 -17 -5 -5 -11
-37 -12 -69 l-3 -60 -52 -5 c-79 -8 -90 -1 -95 62 -5 67 -1 84 23 94 22 10
149 6 149 -5z m1098 6 c8 -10 7 -114 -2 -124 -1 -2 -124 -5 -143 -4 -16 1 -27
95 -13 120 9 18 20 21 79 21 43 0 72 -5 79 -13z m-1468 -5 c0 -5 -3 -11 -6
-15 -10 -10 -11 -121 -1 -134 7 -10 1 -13 -24 -14 -43 -1 -123 2 -126 5 -6 5
-10 119 -6 136 4 16 17 20 67 23 33 2 69 4 79 5 9 1 17 -2 17 -6z m-385 -12
c25 -10 26 -13 20 -58 -4 -26 -8 -56 -9 -67 -2 -33 -23 -42 -88 -34 -32 4 -61
9 -62 10 -2 2 -6 35 -8 72 -4 75 -7 72 72 80 19 2 38 5 42 5 4 1 19 -3 33 -8z
m-722 -87 l-2 -78 -74 -3 -74 -3 -7 32 c-3 17 -6 51 -6 75 0 49 1 49 100 52
l65 3 -2 -78z m-738 50 c-5 -10 -9 -34 -11 -53 -2 -19 -1 -26 2 -15 13 45 24
37 24 -17 0 -42 -4 -57 -16 -62 -14 -5 -16 -1 -10 24 3 19 2 29 -4 25 -6 -3
-10 -17 -10 -31 0 -24 -12 -29 -65 -25 -64 5 -65 6 -65 85 0 85 -3 82 104 85
52 1 57 -1 51 -16z m3895 -478 c86 -45 74 -148 -21 -181 -48 -16 -111 15 -128
62 -30 84 66 162 149 119z m-3446 -58 c22 -18 28 -31 30 -74 3 -64 -14 -89
-70 -101 -53 -12 -97 6 -118 47 -22 41 -20 73 4 104 43 55 103 64 154 24z"/>
    </g>
</svg>
